<mxfile host="app.diagrams.net" agent="Mozilla/5.0 (Windows NT 10.0; Win64; x64) AppleWebKit/537.36 (KHTML, like Gecko) Chrome/128.0.0.0 Safari/537.36 OPR/114.0.0.0" version="24.8.6">
  <diagram name="Página-1" id="VwAsUlHs5DSFmlMA85f5">
    <mxGraphModel dx="1009" dy="539" grid="1" gridSize="10" guides="1" tooltips="1" connect="1" arrows="1" fold="1" page="1" pageScale="1" pageWidth="827" pageHeight="1169" math="0" shadow="0">
      <root>
        <mxCell id="0" />
        <mxCell id="1" parent="0" />
        <mxCell id="PV5hBjPXJR__UWqTvaMe-15" value="" style="edgeStyle=orthogonalEdgeStyle;rounded=0;orthogonalLoop=1;jettySize=auto;html=1;" edge="1" parent="1" source="PV5hBjPXJR__UWqTvaMe-1" target="PV5hBjPXJR__UWqTvaMe-4">
          <mxGeometry relative="1" as="geometry" />
        </mxCell>
        <mxCell id="PV5hBjPXJR__UWqTvaMe-1" value="&lt;font style=&quot;font-size: 15px;&quot;&gt;Palestrante&lt;/font&gt;" style="rounded=0;whiteSpace=wrap;html=1;" vertex="1" parent="1">
          <mxGeometry x="40" y="450" width="120" height="60" as="geometry" />
        </mxCell>
        <mxCell id="PV5hBjPXJR__UWqTvaMe-16" value="" style="edgeStyle=orthogonalEdgeStyle;rounded=0;orthogonalLoop=1;jettySize=auto;html=1;" edge="1" parent="1" source="PV5hBjPXJR__UWqTvaMe-4" target="PV5hBjPXJR__UWqTvaMe-6">
          <mxGeometry relative="1" as="geometry" />
        </mxCell>
        <mxCell id="PV5hBjPXJR__UWqTvaMe-4" value="Palestrante" style="rhombus;whiteSpace=wrap;html=1;rounded=0;" vertex="1" parent="1">
          <mxGeometry x="190" y="450" width="100" height="60" as="geometry" />
        </mxCell>
        <mxCell id="PV5hBjPXJR__UWqTvaMe-17" value="" style="edgeStyle=orthogonalEdgeStyle;rounded=0;orthogonalLoop=1;jettySize=auto;html=1;" edge="1" parent="1" source="PV5hBjPXJR__UWqTvaMe-6" target="PV5hBjPXJR__UWqTvaMe-8">
          <mxGeometry relative="1" as="geometry" />
        </mxCell>
        <mxCell id="PV5hBjPXJR__UWqTvaMe-18" value="" style="edgeStyle=orthogonalEdgeStyle;rounded=0;orthogonalLoop=1;jettySize=auto;html=1;" edge="1" parent="1" source="PV5hBjPXJR__UWqTvaMe-6" target="PV5hBjPXJR__UWqTvaMe-12">
          <mxGeometry relative="1" as="geometry" />
        </mxCell>
        <mxCell id="PV5hBjPXJR__UWqTvaMe-6" value="&lt;font style=&quot;font-size: 15px;&quot;&gt;Evento&lt;/font&gt;" style="whiteSpace=wrap;html=1;rounded=0;" vertex="1" parent="1">
          <mxGeometry x="320" y="450" width="120" height="60" as="geometry" />
        </mxCell>
        <mxCell id="PV5hBjPXJR__UWqTvaMe-8" value="&lt;font style=&quot;font-size: 15px;&quot;&gt;Localização&lt;/font&gt;" style="whiteSpace=wrap;html=1;rounded=0;" vertex="1" parent="1">
          <mxGeometry x="320" y="610" width="120" height="60" as="geometry" />
        </mxCell>
        <mxCell id="PV5hBjPXJR__UWqTvaMe-10" value="&lt;font style=&quot;font-size: 15px;&quot;&gt;Participantes&lt;/font&gt;" style="whiteSpace=wrap;html=1;rounded=0;" vertex="1" parent="1">
          <mxGeometry x="620" y="450" width="120" height="60" as="geometry" />
        </mxCell>
        <mxCell id="PV5hBjPXJR__UWqTvaMe-19" value="" style="edgeStyle=orthogonalEdgeStyle;rounded=0;orthogonalLoop=1;jettySize=auto;html=1;" edge="1" parent="1" source="PV5hBjPXJR__UWqTvaMe-12" target="PV5hBjPXJR__UWqTvaMe-10">
          <mxGeometry relative="1" as="geometry" />
        </mxCell>
        <mxCell id="PV5hBjPXJR__UWqTvaMe-12" value="Participante" style="rhombus;whiteSpace=wrap;html=1;rounded=0;" vertex="1" parent="1">
          <mxGeometry x="480" y="450" width="100" height="60" as="geometry" />
        </mxCell>
      </root>
    </mxGraphModel>
  </diagram>
</mxfile>
